<?xml version="1.0" encoding="UTF-8" standalone="no"?>
<!DOCTYPE svg PUBLIC "-//W3C//DTD SVG 1.1//EN"
 "http://www.w3.org/Graphics/SVG/1.1/DTD/svg11.dtd">
<!-- Generated by graphviz version 2.43.0 (0)
 -->
<!-- Title: modules Pages: 1 -->
<svg width="1028pt" height="236pt"
 viewBox="0.00 0.00 1028.00 236.00" xmlns="http://www.w3.org/2000/svg" xmlns:xlink="http://www.w3.org/1999/xlink">
<g id="graph0" class="graph" transform="scale(1 1) rotate(0) translate(4 232)">
<title>modules</title>
<g id="clust1" class="cluster">
<title>cluster_mapping</title>
<polygon fill="#9575cd" fill-opacity="0.062745" stroke="#9575cd" stroke-dasharray="5,2" points="15.5,-8 15.5,-137 148.5,-137 148.5,-8 15.5,-8"/>
<text text-anchor="middle" x="109.5" y="-121.8" font-family="fixed" font-size="14.00" fill="#b5e4f4">mapping</text>
</g>
<g id="clust2" class="cluster">
<title>cluster_navigation</title>
<polygon fill="#aa96da" fill-opacity="0.062745" stroke="#aa96da" stroke-dasharray="5,2" points="380,-43 380,-172 567,-172 567,-43 380,-43"/>
<text text-anchor="middle" x="522.5" y="-156.8" font-family="fixed" font-size="14.00" fill="#b5e4f4">navigation</text>
</g>
<g id="clust3" class="cluster">
<title>cluster_robot</title>
<polygon fill="#64b5f6" fill-opacity="0.062745" stroke="#64b5f6" stroke-dasharray="5,2" points="770,-76 770,-151 894,-151 894,-76 770,-76"/>
<text text-anchor="middle" x="867.5" y="-135.8" font-family="fixed" font-size="14.00" fill="#b5e4f4">robot</text>
</g>
<g id="clust4" class="cluster">
<title>cluster_visualization</title>
<polygon fill="#7986cb" fill-opacity="0.062745" stroke="#7986cb" stroke-dasharray="5,2" points="8,-145 8,-220 156,-220 156,-145 8,-145"/>
<text text-anchor="middle" x="104.5" y="-204.8" font-family="fixed" font-size="14.00" fill="#b5e4f4">visualization</text>
</g>
<!-- CostMapper -->
<g id="node1" class="node">
<title>CostMapper</title>
<polygon fill="#0b0f0f" stroke="#5c9ff0" points="125.5,-106 38.5,-106 38.5,-70 125.5,-70 125.5,-106"/>
<text text-anchor="middle" x="82" y="-84.9" font-family="fixed" font-size="12.00" fill="#b5e4f4">CostMapper</text>
</g>
<!-- chan_global_costmap_OccupancyGrid -->
<g id="node8" class="node">
<title>chan_global_costmap_OccupancyGrid</title>
<polygon fill="#ff8a65" fill-opacity="0.207843" stroke="#ff8a65" points="348.83,-107.5 184,-107.5 184,-88.5 352,-88.5 352,-104.33 348.83,-107.5"/>
<polyline fill="none" stroke="#ff8a65" points="348.83,-107.5 348.83,-104.33 "/>
<polyline fill="none" stroke="#ff8a65" points="352,-104.33 348.83,-104.33 "/>
<text text-anchor="middle" x="268" y="-95.5" font-family="fixed" font-size="10.00" fill="#b5e4f4">global_costmap:OccupancyGrid</text>
</g>
<!-- CostMapper&#45;&gt;chan_global_costmap_OccupancyGrid -->
<g id="edge3" class="edge">
<title>CostMapper&#45;&gt;chan_global_costmap_OccupancyGrid</title>
<path fill="none" stroke="#ff8a65" d="M125.68,-90.32C142.98,-91.26 163.59,-92.38 183.65,-93.47"/>
</g>
<!-- VoxelGridMapper -->
<g id="node2" class="node">
<title>VoxelGridMapper</title>
<polygon fill="#0b0f0f" stroke="#5c9ff0" points="140.5,-52 23.5,-52 23.5,-16 140.5,-16 140.5,-52"/>
<text text-anchor="middle" x="82" y="-30.9" font-family="fixed" font-size="12.00" fill="#b5e4f4">VoxelGridMapper</text>
</g>
<!-- chan_global_map_PointCloud2 -->
<g id="node9" class="node">
<title>chan_global_map_PointCloud2</title>
<polygon fill="#a1887f" fill-opacity="0.207843" stroke="#a1887f" points="331.33,-70.5 201.5,-70.5 201.5,-51.5 334.5,-51.5 334.5,-67.33 331.33,-70.5"/>
<polyline fill="none" stroke="#a1887f" points="331.33,-70.5 331.33,-67.33 "/>
<polyline fill="none" stroke="#a1887f" points="334.5,-67.33 331.33,-67.33 "/>
<text text-anchor="middle" x="268" y="-58.5" font-family="fixed" font-size="10.00" fill="#b5e4f4">global_map:PointCloud2</text>
</g>
<!-- VoxelGridMapper&#45;&gt;chan_global_map_PointCloud2 -->
<g id="edge6" class="edge">
<title>VoxelGridMapper&#45;&gt;chan_global_map_PointCloud2</title>
<path fill="none" stroke="#a1887f" d="M140.71,-42.47C160.21,-45.33 182.11,-48.54 202.12,-51.48"/>
</g>
<!-- ReplanningAStarPlanner -->
<g id="node3" class="node">
<title>ReplanningAStarPlanner</title>
<polygon fill="#0b0f0f" stroke="#5c9ff0" points="553,-141 394,-141 394,-105 553,-105 553,-141"/>
<text text-anchor="middle" x="473.5" y="-119.9" font-family="fixed" font-size="12.00" fill="#b5e4f4">ReplanningAStarPlanner</text>
</g>
<!-- chan_cmd_vel_Twist -->
<g id="node7" class="node">
<title>chan_cmd_vel_Twist</title>
<polygon fill="#4db6ac" fill-opacity="0.207843" stroke="#4db6ac" points="707.33,-148.5 626.5,-148.5 626.5,-129.5 710.5,-129.5 710.5,-145.33 707.33,-148.5"/>
<polyline fill="none" stroke="#4db6ac" points="707.33,-148.5 707.33,-145.33 "/>
<polyline fill="none" stroke="#4db6ac" points="710.5,-145.33 707.33,-145.33 "/>
<text text-anchor="middle" x="668.5" y="-136.5" font-family="fixed" font-size="10.00" fill="#b5e4f4">cmd_vel:Twist</text>
</g>
<!-- ReplanningAStarPlanner&#45;&gt;chan_cmd_vel_Twist -->
<g id="edge1" class="edge">
<title>ReplanningAStarPlanner&#45;&gt;chan_cmd_vel_Twist</title>
<path fill="none" stroke="#4db6ac" d="M553,-129.51C578.15,-131.59 604.99,-133.82 626.36,-135.59"/>
</g>
<!-- chan_goal_reached_Bool -->
<g id="node10" class="node">
<title>chan_goal_reached_Bool</title>
<polygon fill="#dce775" fill-opacity="0.207843" stroke="#dce775" points="717.83,-74.5 616,-74.5 616,-55.5 721,-55.5 721,-71.33 717.83,-74.5"/>
<polyline fill="none" stroke="#dce775" points="717.83,-74.5 717.83,-71.33 "/>
<polyline fill="none" stroke="#dce775" points="721,-71.33 717.83,-71.33 "/>
<text text-anchor="middle" x="668.5" y="-62.5" font-family="fixed" font-size="10.00" fill="#b5e4f4">goal_reached:Bool</text>
</g>
<!-- ReplanningAStarPlanner&#45;&gt;chan_goal_reached_Bool -->
<g id="edge8" class="edge">
<title>ReplanningAStarPlanner&#45;&gt;chan_goal_reached_Bool</title>
<path fill="none" stroke="#dce775" d="M540.01,-104.95C549.13,-102.13 558.34,-99.11 567,-96 579.74,-91.43 582.19,-88.39 595,-84 605.22,-80.49 616.43,-77.26 626.92,-74.5"/>
</g>
<!-- WavefrontFrontierExplorer -->
<g id="node4" class="node">
<title>WavefrontFrontierExplorer</title>
<polygon fill="#0b0f0f" stroke="#5c9ff0" points="559,-87 388,-87 388,-51 559,-51 559,-87"/>
<text text-anchor="middle" x="473.5" y="-65.9" font-family="fixed" font-size="12.00" fill="#b5e4f4">WavefrontFrontierExplorer</text>
</g>
<!-- chan_goal_request_PoseStamped -->
<g id="node11" class="node">
<title>chan_goal_request_PoseStamped</title>
<polygon fill="#fff59d" fill-opacity="0.207843" stroke="#fff59d" points="738.83,-111.5 595,-111.5 595,-92.5 742,-92.5 742,-108.33 738.83,-111.5"/>
<polyline fill="none" stroke="#fff59d" points="738.83,-111.5 738.83,-108.33 "/>
<polyline fill="none" stroke="#fff59d" points="742,-108.33 738.83,-108.33 "/>
<text text-anchor="middle" x="668.5" y="-99.5" font-family="fixed" font-size="10.00" fill="#b5e4f4">goal_request:PoseStamped</text>
</g>
<!-- WavefrontFrontierExplorer&#45;&gt;chan_goal_request_PoseStamped -->
<g id="edge10" class="edge">
<title>WavefrontFrontierExplorer&#45;&gt;chan_goal_request_PoseStamped</title>
<path fill="none" stroke="#fff59d" d="M559.15,-83.47C576.98,-86.52 595.35,-89.66 611.79,-92.47"/>
</g>
<!-- GO2Connection -->
<g id="node5" class="node">
<title>GO2Connection</title>
<polygon fill="#0b0f0f" stroke="#5c9ff0" points="886,-120 778,-120 778,-84 886,-84 886,-120"/>
<text text-anchor="middle" x="832" y="-98.9" font-family="fixed" font-size="12.00" fill="#b5e4f4">GO2Connection</text>
</g>
<!-- chan_lidar_PointCloud2 -->
<g id="node12" class="node">
<title>chan_lidar_PointCloud2</title>
<polygon fill="#f06292" fill-opacity="0.207843" stroke="#f06292" points="1016.83,-71.5 922,-71.5 922,-52.5 1020,-52.5 1020,-68.33 1016.83,-71.5"/>
<polyline fill="none" stroke="#f06292" points="1016.83,-71.5 1016.83,-68.33 "/>
<polyline fill="none" stroke="#f06292" points="1020,-68.33 1016.83,-68.33 "/>
<text text-anchor="middle" x="971" y="-59.5" font-family="fixed" font-size="10.00" fill="#b5e4f4">lidar:PointCloud2</text>
</g>
<!-- GO2Connection&#45;&gt;chan_lidar_PointCloud2 -->
<g id="edge12" class="edge">
<title>GO2Connection&#45;&gt;chan_lidar_PointCloud2</title>
<path fill="none" stroke="#f06292" d="M886.36,-86.42C903.49,-81.42 921.95,-76.03 937.16,-71.59"/>
</g>
<!-- RerunBridgeModule -->
<g id="node6" class="node">
<title>RerunBridgeModule</title>
<polygon fill="#0b0f0f" stroke="#5c9ff0" points="148,-189 16,-189 16,-153 148,-153 148,-189"/>
<text text-anchor="middle" x="82" y="-167.9" font-family="fixed" font-size="12.00" fill="#b5e4f4">RerunBridgeModule</text>
</g>
<!-- chan_cmd_vel_Twist&#45;&gt;GO2Connection -->
<g id="edge2" class="edge">
<title>chan_cmd_vel_Twist&#45;&gt;GO2Connection</title>
<path fill="none" stroke="#4db6ac" d="M710.67,-129.57C728.1,-125.57 748.8,-120.83 768.07,-116.42"/>
<polygon fill="#4db6ac" stroke="#4db6ac" points="769.02,-119.79 777.99,-114.14 767.46,-112.97 769.02,-119.79"/>
</g>
<!-- chan_global_costmap_OccupancyGrid&#45;&gt;ReplanningAStarPlanner -->
<g id="edge4" class="edge">
<title>chan_global_costmap_OccupancyGrid&#45;&gt;ReplanningAStarPlanner</title>
<path fill="none" stroke="#ff8a65" d="M346.52,-107.52C358.62,-109.01 371.22,-110.56 383.56,-112.07"/>
<polygon fill="#ff8a65" stroke="#ff8a65" points="383.5,-115.59 393.85,-113.34 384.35,-108.64 383.5,-115.59"/>
</g>
<!-- chan_global_costmap_OccupancyGrid&#45;&gt;WavefrontFrontierExplorer -->
<g id="edge5" class="edge">
<title>chan_global_costmap_OccupancyGrid&#45;&gt;WavefrontFrontierExplorer</title>
<path fill="none" stroke="#ff8a65" d="M335.92,-88.46C349.25,-86.56 363.48,-84.54 377.55,-82.53"/>
<polygon fill="#ff8a65" stroke="#ff8a65" points="378.33,-85.95 387.74,-81.08 377.35,-79.02 378.33,-85.95"/>
</g>
<!-- chan_global_map_PointCloud2&#45;&gt;CostMapper -->
<g id="edge7" class="edge">
<title>chan_global_map_PointCloud2&#45;&gt;CostMapper</title>
<path fill="none" stroke="#a1887f" d="M202.19,-70.51C180.38,-73.71 156.33,-77.24 135.57,-80.29"/>
<polygon fill="#a1887f" stroke="#a1887f" points="135.06,-76.82 125.68,-81.74 136.08,-83.75 135.06,-76.82"/>
</g>
<!-- chan_goal_reached_Bool&#45;&gt;WavefrontFrontierExplorer -->
<g id="edge9" class="edge">
<title>chan_goal_reached_Bool&#45;&gt;WavefrontFrontierExplorer</title>
<path fill="none" stroke="#dce775" d="M615.95,-66.07C601.49,-66.37 585.29,-66.7 569.17,-67.04"/>
<polygon fill="#dce775" stroke="#dce775" points="569.08,-63.54 559.15,-67.25 569.22,-70.54 569.08,-63.54"/>
</g>
<!-- chan_goal_request_PoseStamped&#45;&gt;ReplanningAStarPlanner -->
<g id="edge11" class="edge">
<title>chan_goal_request_PoseStamped&#45;&gt;ReplanningAStarPlanner</title>
<path fill="none" stroke="#fff59d" d="M594.98,-109.89C584.6,-111.02 573.81,-112.19 563.16,-113.35"/>
<polygon fill="#fff59d" stroke="#fff59d" points="562.56,-109.9 553,-114.46 563.32,-116.86 562.56,-109.9"/>
</g>
<!-- chan_lidar_PointCloud2&#45;&gt;VoxelGridMapper -->
<g id="edge13" class="edge">
<title>chan_lidar_PointCloud2&#45;&gt;VoxelGridMapper</title>
<path fill="none" stroke="#f06292" d="M924.93,-52.46C866.36,-40.91 760.77,-23 669.5,-23 472.5,-23 472.5,-23 472.5,-23 359.69,-23 228.57,-27.67 150.87,-30.92"/>
<polygon fill="#f06292" stroke="#f06292" points="150.57,-27.43 140.73,-31.35 150.87,-34.42 150.57,-27.43"/>
</g>
</g>
</svg>
